<svg width="120" height="121" viewBox="0 0 120 121" fill="none" xmlns="http://www.w3.org/2000/svg">
<mask id="mask0" mask-type="alpha" maskUnits="userSpaceOnUse" x="0" y="0" width="59" height="121">
<path d="M0 0H59V121H0V0Z" fill="#C4C4C4"/>
</mask>
<g mask="url(#mask0)">
<circle cx="60" cy="61" r="58" stroke="url(#paint0_linear)" stroke-width="4"/>
</g>
<mask id="mask1" mask-type="alpha" maskUnits="userSpaceOnUse" x="61" y="1" width="59" height="59">
<path d="M61 1H120V60H61V1Z" fill="#C4C4C4"/>
</mask>
<g mask="url(#mask1)">
<circle cx="60" cy="61" r="55" stroke="url(#paint1_linear)" stroke-width="10"/>
</g>
<mask id="mask2" mask-type="alpha" maskUnits="userSpaceOnUse" x="61" y="62" width="59" height="59">
<path d="M120 62V121H61L61 62L120 62Z" fill="#C4C4C4"/>
</mask>
<g mask="url(#mask2)">
<circle cx="60" cy="61" r="58" transform="rotate(90 60 61)" stroke="url(#paint2_linear)" stroke-width="4"/>
</g>
<path d="M50.9211 57.36C51.3051 57.36 51.6251 57.488 51.8811 57.744C52.1371 58 52.2651 58.32 52.2651 58.704C52.2651 59.072 52.1371 59.384 51.8811 59.64C51.6251 59.88 51.3051 60 50.9211 60H42.7611C42.3451 60 42.0171 59.872 41.7771 59.616C41.5371 59.36 41.4171 59.032 41.4171 58.632C41.4171 58.232 41.5611 57.88 41.8491 57.576L47.0811 51.984C47.6731 51.344 48.1371 50.704 48.4731 50.064C48.8251 49.408 49.0011 48.808 49.0011 48.264C49.0011 47.544 48.7451 46.92 48.2331 46.392C47.7211 45.864 47.1291 45.6 46.4571 45.6C45.9931 45.6 45.5211 45.76 45.0411 46.08C44.5771 46.384 44.1531 46.792 43.7691 47.304C43.4811 47.688 43.1131 47.88 42.6651 47.88C42.3131 47.88 41.9851 47.744 41.6811 47.472C41.3931 47.2 41.2491 46.896 41.2491 46.56C41.2491 46.32 41.3291 46.08 41.4891 45.84C41.6491 45.584 41.8891 45.296 42.2091 44.976C42.8171 44.368 43.5211 43.88 44.3211 43.512C45.1211 43.144 45.8891 42.96 46.6251 42.96C47.6811 42.96 48.6091 43.184 49.4091 43.632C50.2091 44.08 50.8251 44.696 51.2571 45.48C51.6891 46.264 51.9051 47.152 51.9051 48.144C51.9051 49.12 51.6411 50.128 51.1131 51.168C50.6011 52.192 49.9051 53.176 49.0251 54.12L45.9771 57.36H50.9211ZM59.9723 49.104C60.8043 49.104 61.6203 49.36 62.4203 49.872C63.2363 50.368 63.9003 51.048 64.4123 51.912C64.9243 52.76 65.1803 53.68 65.1803 54.672C65.1803 55.68 64.9243 56.616 64.4123 57.48C63.9163 58.328 63.2443 59 62.3963 59.496C61.5483 59.992 60.6123 60.24 59.5883 60.24C58.4843 60.24 57.5003 59.936 56.6363 59.328C55.7723 58.704 55.1083 57.896 54.6443 56.904C54.1803 55.896 53.9483 54.824 53.9483 53.688C53.9483 52.52 54.1483 51.24 54.5483 49.848C54.9643 48.44 55.7083 47.112 56.7803 45.864C57.8683 44.616 59.3403 43.728 61.1963 43.2C61.3883 43.152 61.5723 43.128 61.7483 43.128C62.1643 43.128 62.5083 43.24 62.7803 43.464C63.0523 43.672 63.1883 44.008 63.1883 44.472C63.1883 44.824 63.0683 45.136 62.8283 45.408C62.6043 45.664 62.3003 45.848 61.9163 45.96C60.9083 46.248 59.9723 46.76 59.1083 47.496C58.2603 48.232 57.6363 49.112 57.2363 50.136C58.0363 49.448 58.9483 49.104 59.9723 49.104ZM59.5883 57.6C60.3403 57.6 60.9803 57.32 61.5083 56.76C62.0363 56.2 62.3003 55.504 62.3003 54.672C62.3003 53.84 62.0363 53.144 61.5083 52.584C60.9803 52.024 60.3403 51.744 59.5883 51.744C58.8203 51.744 58.1723 52.024 57.6443 52.584C57.1323 53.144 56.8763 53.84 56.8763 54.672C56.8763 55.504 57.1323 56.2 57.6443 56.76C58.1723 57.32 58.8203 57.6 59.5883 57.6ZM73.5047 60.24C72.1607 60.24 71.0007 59.88 70.0247 59.16C69.0647 58.44 68.3367 57.432 67.8407 56.136C67.3447 54.824 67.0967 53.312 67.0967 51.6C67.0967 49.888 67.3447 48.384 67.8407 47.088C68.3367 45.776 69.0647 44.76 70.0247 44.04C71.0007 43.32 72.1607 42.96 73.5047 42.96C74.8487 42.96 76.0007 43.32 76.9607 44.04C77.9367 44.76 78.6727 45.776 79.1687 47.088C79.6647 48.384 79.9127 49.888 79.9127 51.6C79.9127 53.312 79.6647 54.824 79.1687 56.136C78.6727 57.432 77.9367 58.44 76.9607 59.16C76.0007 59.88 74.8487 60.24 73.5047 60.24ZM73.5047 57.36C74.5287 57.36 75.3287 56.872 75.9047 55.896C76.4967 54.92 76.7927 53.488 76.7927 51.6C76.7927 49.712 76.4967 48.28 75.9047 47.304C75.3287 46.328 74.5287 45.84 73.5047 45.84C72.4807 45.84 71.6727 46.328 71.0807 47.304C70.5047 48.28 70.2167 49.712 70.2167 51.6C70.2167 53.488 70.5047 54.92 71.0807 55.896C71.6727 56.872 72.4807 57.36 73.5047 57.36Z" fill="#BC9CFF"/>
<path d="M35.2666 71.184H31.2706L31.2826 78H29.3506V69.6H35.2786L35.2666 71.184ZM39.6165 78.144C38.7445 78.144 37.9565 77.956 37.2525 77.58C36.5565 77.204 36.0085 76.688 35.6085 76.032C35.2165 75.368 35.0205 74.624 35.0205 73.8C35.0205 72.976 35.2165 72.236 35.6085 71.58C36.0085 70.916 36.5565 70.396 37.2525 70.02C37.9565 69.644 38.7445 69.456 39.6165 69.456C40.4885 69.456 41.2725 69.644 41.9685 70.02C42.6645 70.396 43.2125 70.916 43.6125 71.58C44.0125 72.236 44.2125 72.976 44.2125 73.8C44.2125 74.624 44.0125 75.368 43.6125 76.032C43.2125 76.688 42.6645 77.204 41.9685 77.58C41.2725 77.956 40.4885 78.144 39.6165 78.144ZM39.6165 76.488C40.1125 76.488 40.5605 76.376 40.9605 76.152C41.3605 75.92 41.6725 75.6 41.8965 75.192C42.1285 74.784 42.2445 74.32 42.2445 73.8C42.2445 73.28 42.1285 72.816 41.8965 72.408C41.6725 72 41.3605 71.684 40.9605 71.46C40.5605 71.228 40.1125 71.112 39.6165 71.112C39.1205 71.112 38.6725 71.228 38.2725 71.46C37.8725 71.684 37.5565 72 37.3245 72.408C37.1005 72.816 36.9885 73.28 36.9885 73.8C36.9885 74.32 37.1005 74.784 37.3245 75.192C37.5565 75.6 37.8725 75.92 38.2725 76.152C38.6725 76.376 39.1205 76.488 39.6165 76.488ZM52.9636 69.6V78H51.0436V71.184H48.1636L48.1036 72.936C48.0636 74.128 47.9676 75.096 47.8156 75.84C47.6636 76.576 47.4076 77.144 47.0476 77.544C46.6956 77.936 46.1996 78.132 45.5596 78.132C45.2956 78.132 44.9756 78.088 44.5996 78L44.7196 76.356C44.8236 76.388 44.9396 76.404 45.0676 76.404C45.5316 76.404 45.8556 76.132 46.0396 75.588C46.2236 75.036 46.3396 74.176 46.3876 73.008L46.5076 69.6H52.9636ZM59.0696 78.144C58.1976 78.144 57.4096 77.956 56.7056 77.58C56.0096 77.204 55.4616 76.688 55.0616 76.032C54.6696 75.368 54.4736 74.624 54.4736 73.8C54.4736 72.976 54.6696 72.236 55.0616 71.58C55.4616 70.916 56.0096 70.396 56.7056 70.02C57.4096 69.644 58.1976 69.456 59.0696 69.456C59.9416 69.456 60.7256 69.644 61.4216 70.02C62.1176 70.396 62.6656 70.916 63.0656 71.58C63.4656 72.236 63.6656 72.976 63.6656 73.8C63.6656 74.624 63.4656 75.368 63.0656 76.032C62.6656 76.688 62.1176 77.204 61.4216 77.58C60.7256 77.956 59.9416 78.144 59.0696 78.144ZM59.0696 76.488C59.5656 76.488 60.0136 76.376 60.4136 76.152C60.8136 75.92 61.1256 75.6 61.3496 75.192C61.5816 74.784 61.6976 74.32 61.6976 73.8C61.6976 73.28 61.5816 72.816 61.3496 72.408C61.1256 72 60.8136 71.684 60.4136 71.46C60.0136 71.228 59.5656 71.112 59.0696 71.112C58.5736 71.112 58.1256 71.228 57.7256 71.46C57.3256 71.684 57.0096 72 56.7776 72.408C56.5536 72.816 56.4416 73.28 56.4416 73.8C56.4416 74.32 56.5536 74.784 56.7776 75.192C57.0096 75.6 57.3256 75.92 57.7256 76.152C58.1256 76.376 58.5736 76.488 59.0696 76.488ZM69.1351 78.144C68.2791 78.144 67.5031 77.96 66.8071 77.592C66.1191 77.216 65.5751 76.7 65.1751 76.044C64.7831 75.38 64.5871 74.632 64.5871 73.8C64.5871 72.968 64.7831 72.224 65.1751 71.568C65.5751 70.904 66.1191 70.388 66.8071 70.02C67.5031 69.644 68.2831 69.456 69.1471 69.456C69.8751 69.456 70.5311 69.584 71.1151 69.84C71.7071 70.096 72.2031 70.464 72.6031 70.944L71.3551 72.096C70.7871 71.44 70.0831 71.112 69.2431 71.112C68.7231 71.112 68.2591 71.228 67.8511 71.46C67.4431 71.684 67.1231 72 66.8911 72.408C66.6671 72.816 66.5551 73.28 66.5551 73.8C66.5551 74.32 66.6671 74.784 66.8911 75.192C67.1231 75.6 67.4431 75.92 67.8511 76.152C68.2591 76.376 68.7231 76.488 69.2431 76.488C70.0831 76.488 70.7871 76.156 71.3551 75.492L72.6031 76.644C72.2031 77.132 71.7071 77.504 71.1151 77.76C70.5231 78.016 69.8631 78.144 69.1351 78.144ZM77.7024 78.144C76.8304 78.144 76.0424 77.956 75.3384 77.58C74.6424 77.204 74.0944 76.688 73.6944 76.032C73.3024 75.368 73.1064 74.624 73.1064 73.8C73.1064 72.976 73.3024 72.236 73.6944 71.58C74.0944 70.916 74.6424 70.396 75.3384 70.02C76.0424 69.644 76.8304 69.456 77.7024 69.456C78.5744 69.456 79.3584 69.644 80.0544 70.02C80.7504 70.396 81.2984 70.916 81.6984 71.58C82.0984 72.236 82.2984 72.976 82.2984 73.8C82.2984 74.624 82.0984 75.368 81.6984 76.032C81.2984 76.688 80.7504 77.204 80.0544 77.58C79.3584 77.956 78.5744 78.144 77.7024 78.144ZM77.7024 76.488C78.1984 76.488 78.6464 76.376 79.0464 76.152C79.4464 75.92 79.7584 75.6 79.9824 75.192C80.2144 74.784 80.3304 74.32 80.3304 73.8C80.3304 73.28 80.2144 72.816 79.9824 72.408C79.7584 72 79.4464 71.684 79.0464 71.46C78.6464 71.228 78.1984 71.112 77.7024 71.112C77.2064 71.112 76.7584 71.228 76.3584 71.46C75.9584 71.684 75.6424 72 75.4104 72.408C75.1864 72.816 75.0744 73.28 75.0744 73.8C75.0744 74.32 75.1864 74.784 75.4104 75.192C75.6424 75.6 75.9584 75.92 76.3584 76.152C76.7584 76.376 77.2064 76.488 77.7024 76.488ZM89.616 73.62C90.128 73.772 90.52 74.02 90.792 74.364C91.064 74.708 91.2 75.132 91.2 75.636C91.2 76.38 90.916 76.96 90.348 77.376C89.788 77.792 88.984 78 87.936 78H83.796V69.6H87.708C88.684 69.6 89.444 69.788 89.988 70.164C90.532 70.54 90.804 71.076 90.804 71.772C90.804 72.188 90.7 72.556 90.492 72.876C90.284 73.188 89.992 73.436 89.616 73.62ZM85.728 73.08H87.54C87.964 73.08 88.284 72.996 88.5 72.828C88.716 72.652 88.824 72.396 88.824 72.06C88.824 71.732 88.712 71.48 88.488 71.304C88.272 71.128 87.956 71.04 87.54 71.04H85.728V73.08ZM87.864 76.56C88.776 76.56 89.232 76.2 89.232 75.48C89.232 74.784 88.776 74.436 87.864 74.436H85.728V76.56H87.864Z" fill="#BC9CFF"/>
<defs>
<linearGradient id="paint0_linear" x1="60" y1="1" x2="60" y2="121" gradientUnits="userSpaceOnUse">
<stop stop-color="#FFE39C"/>
<stop offset="1" stop-color="#FFBA9C"/>
</linearGradient>
<linearGradient id="paint1_linear" x1="60" y1="1" x2="60" y2="121" gradientUnits="userSpaceOnUse">
<stop stop-color="#BC9CFF"/>
<stop offset="1" stop-color="#8BA4F9"/>
</linearGradient>
<linearGradient id="paint2_linear" x1="60" y1="1" x2="60" y2="121" gradientUnits="userSpaceOnUse">
<stop stop-color="#6FCF97"/>
<stop offset="1" stop-color="#66D2EA"/>
</linearGradient>
</defs>
</svg>
