<svg width="291" height="158" viewBox="0 0 291 158" fill="none" xmlns="http://www.w3.org/2000/svg">
<rect y="68" width="280" height="1" fill="#1F2041" fill-opacity="0.1"/>
<path d="M63.012 13.052H61.444V17H59.19V7.2H61.444V11.162H63.068L65.644 7.2H68.038L64.832 11.932L68.136 17H65.56L63.012 13.052ZM72.4491 17.112C71.6558 17.112 70.9418 16.9487 70.3071 16.622C69.6818 16.286 69.1918 15.824 68.8371 15.236C68.4824 14.648 68.3051 13.9807 68.3051 13.234C68.3051 12.4873 68.4824 11.82 68.8371 11.232C69.1918 10.644 69.6818 10.1867 70.3071 9.86C70.9418 9.524 71.6558 9.356 72.4491 9.356C73.2424 9.356 73.9518 9.524 74.5771 9.86C75.2024 10.1867 75.6924 10.644 76.0471 11.232C76.4018 11.82 76.5791 12.4873 76.5791 13.234C76.5791 13.9807 76.4018 14.648 76.0471 15.236C75.6924 15.824 75.2024 16.286 74.5771 16.622C73.9518 16.9487 73.2424 17.112 72.4491 17.112ZM72.4491 15.32C73.0091 15.32 73.4664 15.1333 73.8211 14.76C74.1851 14.3773 74.3671 13.8687 74.3671 13.234C74.3671 12.5993 74.1851 12.0953 73.8211 11.722C73.4664 11.3393 73.0091 11.148 72.4491 11.148C71.8891 11.148 71.4271 11.3393 71.0631 11.722C70.6991 12.0953 70.5171 12.5993 70.5171 13.234C70.5171 13.8687 70.6991 14.3773 71.0631 14.76C71.4271 15.1333 71.8891 15.32 72.4491 15.32ZM85.4313 17V12.492L83.1773 16.272H82.2533L80.0553 12.478V17H78.0813V9.468H80.3633L82.7713 13.822L85.3333 9.468H87.3773L87.4053 17H85.4313ZM99.8993 13.206C99.8993 14.3727 99.5073 15.2967 98.7233 15.978C97.9486 16.65 96.8379 17.0373 95.3913 17.14V19.716H93.3893V17.14C91.9426 17.0373 90.8273 16.6547 90.0433 15.992C89.2686 15.32 88.8813 14.3913 88.8813 13.206C88.8813 12.0393 89.2639 11.134 90.0293 10.49C90.8039 9.846 91.9239 9.47267 93.3893 9.37V6.612H95.3913V9.37C96.8379 9.47267 97.9486 9.85067 98.7233 10.504C99.5073 11.1573 99.8993 12.058 99.8993 13.206ZM90.9953 13.206C90.9953 13.878 91.1866 14.396 91.5693 14.76C91.9519 15.124 92.5586 15.3527 93.3893 15.446V11.064C92.5586 11.148 91.9519 11.3673 91.5693 11.722C91.1866 12.0673 90.9953 12.562 90.9953 13.206ZM95.3913 15.446C96.2219 15.3527 96.8286 15.124 97.2113 14.76C97.6033 14.396 97.7993 13.878 97.7993 13.206C97.7993 12.562 97.6033 12.0673 97.2113 11.722C96.8286 11.3673 96.2219 11.148 95.3913 11.064V15.446ZM104.906 17.112C104.113 17.112 103.399 16.9487 102.764 16.622C102.139 16.286 101.649 15.824 101.294 15.236C100.939 14.648 100.762 13.9807 100.762 13.234C100.762 12.4873 100.939 11.82 101.294 11.232C101.649 10.644 102.139 10.1867 102.764 9.86C103.399 9.524 104.113 9.356 104.906 9.356C105.699 9.356 106.409 9.524 107.034 9.86C107.659 10.1867 108.149 10.644 108.504 11.232C108.859 11.82 109.036 12.4873 109.036 13.234C109.036 13.9807 108.859 14.648 108.504 15.236C108.149 15.824 107.659 16.286 107.034 16.622C106.409 16.9487 105.699 17.112 104.906 17.112ZM104.906 15.32C105.466 15.32 105.923 15.1333 106.278 14.76C106.642 14.3773 106.824 13.8687 106.824 13.234C106.824 12.5993 106.642 12.0953 106.278 11.722C105.923 11.3393 105.466 11.148 104.906 11.148C104.346 11.148 103.884 11.3393 103.52 11.722C103.156 12.0953 102.974 12.5993 102.974 13.234C102.974 13.8687 103.156 14.3773 103.52 14.76C103.884 15.1333 104.346 15.32 104.906 15.32ZM114.976 9.356C115.676 9.356 116.311 9.51933 116.88 9.846C117.459 10.1633 117.912 10.616 118.238 11.204C118.565 11.7827 118.728 12.4593 118.728 13.234C118.728 14.0087 118.565 14.69 118.238 15.278C117.912 15.8567 117.459 16.3093 116.88 16.636C116.311 16.9533 115.676 17.112 114.976 17.112C114.015 17.112 113.259 16.8087 112.708 16.202V19.716H110.524V9.468H112.61V10.336C113.152 9.68267 113.94 9.356 114.976 9.356ZM114.598 15.32C115.158 15.32 115.616 15.1333 115.97 14.76C116.334 14.3773 116.516 13.8687 116.516 13.234C116.516 12.5993 116.334 12.0953 115.97 11.722C115.616 11.3393 115.158 11.148 114.598 11.148C114.038 11.148 113.576 11.3393 113.212 11.722C112.858 12.0953 112.68 12.5993 112.68 13.234C112.68 13.8687 112.858 14.3773 113.212 14.76C113.576 15.1333 114.038 15.32 114.598 15.32ZM126.314 11.26H123.766V17H121.596V11.26H119.048V9.468H126.314V11.26ZM71.664 31.2V41H59.652V31.2H60.674V40.104H65.154V31.2H66.176V40.104H70.642V31.2H71.664ZM80.9845 33.636L77.3025 41.882C77.0038 42.5727 76.6585 43.0627 76.2665 43.352C75.8745 43.6413 75.4032 43.786 74.8525 43.786C74.4978 43.786 74.1665 43.73 73.8585 43.618C73.5505 43.506 73.2845 43.338 73.0605 43.114L73.5225 42.372C73.8958 42.7453 74.3438 42.932 74.8665 42.932C75.2025 42.932 75.4872 42.8387 75.7205 42.652C75.9632 42.4653 76.1872 42.148 76.3925 41.7L76.7145 40.986L73.4245 33.636H74.4605L77.2325 39.894L80.0045 33.636H80.9845ZM90.7651 33.636V41H89.8551V35.176L86.8731 40.104H86.4251L83.4431 35.162V41H82.5331V33.636H83.5411L86.6631 38.942L89.8411 33.636H90.7651ZM96.6317 41.07C95.9224 41.07 95.283 40.9113 94.7137 40.594C94.1444 40.2673 93.6964 39.8193 93.3697 39.25C93.043 38.6807 92.8797 38.0367 92.8797 37.318C92.8797 36.5993 93.043 35.9553 93.3697 35.386C93.6964 34.8167 94.1444 34.3733 94.7137 34.056C95.283 33.7387 95.9224 33.58 96.6317 33.58C97.341 33.58 97.9804 33.7387 98.5497 34.056C99.119 34.3733 99.5624 34.8167 99.8797 35.386C100.206 35.9553 100.37 36.5993 100.37 37.318C100.37 38.0367 100.206 38.6807 99.8797 39.25C99.5624 39.8193 99.119 40.2673 98.5497 40.594C97.9804 40.9113 97.341 41.07 96.6317 41.07ZM96.6317 40.188C97.1544 40.188 97.621 40.0713 98.0317 39.838C98.4517 39.5953 98.7784 39.2547 99.0117 38.816C99.245 38.3773 99.3617 37.878 99.3617 37.318C99.3617 36.758 99.245 36.2587 99.0117 35.82C98.7784 35.3813 98.4517 35.0453 98.0317 34.812C97.621 34.5693 97.1544 34.448 96.6317 34.448C96.109 34.448 95.6377 34.5693 95.2177 34.812C94.807 35.0453 94.4804 35.3813 94.2377 35.82C94.0044 36.2587 93.8877 36.758 93.8877 37.318C93.8877 37.878 94.0044 38.3773 94.2377 38.816C94.4804 39.2547 94.807 39.5953 95.2177 39.838C95.6377 40.0713 96.109 40.188 96.6317 40.188ZM109.102 33.636V41H108.108V34.518H103.488V41H102.494V33.636H109.102ZM114.966 41.07C114.256 41.07 113.617 40.9113 113.048 40.594C112.478 40.2673 112.03 39.8193 111.704 39.25C111.377 38.6807 111.214 38.0367 111.214 37.318C111.214 36.5993 111.377 35.9553 111.704 35.386C112.03 34.8167 112.478 34.3733 113.048 34.056C113.617 33.7387 114.256 33.58 114.966 33.58C115.675 33.58 116.314 33.7387 116.884 34.056C117.453 34.3733 117.896 34.8167 118.214 35.386C118.54 35.9553 118.704 36.5993 118.704 37.318C118.704 38.0367 118.54 38.6807 118.214 39.25C117.896 39.8193 117.453 40.2673 116.884 40.594C116.314 40.9113 115.675 41.07 114.966 41.07ZM114.966 40.188C115.488 40.188 115.955 40.0713 116.366 39.838C116.786 39.5953 117.112 39.2547 117.346 38.816C117.579 38.3773 117.696 37.878 117.696 37.318C117.696 36.758 117.579 36.2587 117.346 35.82C117.112 35.3813 116.786 35.0453 116.366 34.812C115.955 34.5693 115.488 34.448 114.966 34.448C114.443 34.448 113.972 34.5693 113.552 34.812C113.141 35.0453 112.814 35.3813 112.572 35.82C112.338 36.2587 112.222 36.758 112.222 37.318C112.222 37.878 112.338 38.3773 112.572 38.816C112.814 39.2547 113.141 39.5953 113.552 39.838C113.972 40.0713 114.443 40.188 114.966 40.188ZM126.036 34.518H121.822V41H120.828V33.636H126.036V34.518ZM133.041 33.636V41H132.047V34.518H128.519L128.421 36.338C128.347 37.8687 128.169 39.0447 127.889 39.866C127.609 40.6873 127.11 41.098 126.391 41.098C126.195 41.098 125.957 41.0607 125.677 40.986L125.747 40.132C125.915 40.1693 126.032 40.188 126.097 40.188C126.48 40.188 126.769 40.0107 126.965 39.656C127.161 39.3013 127.292 38.8627 127.357 38.34C127.423 37.8173 127.479 37.1267 127.525 36.268L127.651 33.636H133.041ZM138.905 41.07C138.196 41.07 137.556 40.9113 136.987 40.594C136.418 40.2673 135.97 39.8193 135.643 39.25C135.316 38.6807 135.153 38.0367 135.153 37.318C135.153 36.5993 135.316 35.9553 135.643 35.386C135.97 34.8167 136.418 34.3733 136.987 34.056C137.556 33.7387 138.196 33.58 138.905 33.58C139.614 33.58 140.254 33.7387 140.823 34.056C141.392 34.3733 141.836 34.8167 142.153 35.386C142.48 35.9553 142.643 36.5993 142.643 37.318C142.643 38.0367 142.48 38.6807 142.153 39.25C141.836 39.8193 141.392 40.2673 140.823 40.594C140.254 40.9113 139.614 41.07 138.905 41.07ZM138.905 40.188C139.428 40.188 139.894 40.0713 140.305 39.838C140.725 39.5953 141.052 39.2547 141.285 38.816C141.518 38.3773 141.635 37.878 141.635 37.318C141.635 36.758 141.518 36.2587 141.285 35.82C141.052 35.3813 140.725 35.0453 140.305 34.812C139.894 34.5693 139.428 34.448 138.905 34.448C138.382 34.448 137.911 34.5693 137.491 34.812C137.08 35.0453 136.754 35.3813 136.511 35.82C136.278 36.2587 136.161 36.758 136.161 37.318C136.161 37.878 136.278 38.3773 136.511 38.816C136.754 39.2547 137.08 39.5953 137.491 39.838C137.911 40.0713 138.382 40.188 138.905 40.188ZM154.932 33.636V41H144.768V33.636H145.762V40.132H149.374V33.636H150.368V40.132H153.938V33.636H154.932ZM156.066 40.132V42.61H155.128V41H153.882V40.132H156.066ZM160.303 33.58C161.265 33.58 162.002 33.8227 162.515 34.308C163.029 34.784 163.285 35.4933 163.285 36.436V41H162.333V39.852C162.109 40.2347 161.778 40.5333 161.339 40.748C160.91 40.9627 160.397 41.07 159.799 41.07C158.978 41.07 158.325 40.874 157.839 40.482C157.354 40.09 157.111 39.572 157.111 38.928C157.111 38.3027 157.335 37.7987 157.783 37.416C158.241 37.0333 158.964 36.842 159.953 36.842H162.291V36.394C162.291 35.7593 162.114 35.2787 161.759 34.952C161.405 34.616 160.887 34.448 160.205 34.448C159.739 34.448 159.291 34.5273 158.861 34.686C158.432 34.8353 158.063 35.0453 157.755 35.316L157.307 34.574C157.681 34.2567 158.129 34.014 158.651 33.846C159.174 33.6687 159.725 33.58 160.303 33.58ZM159.953 40.286C160.513 40.286 160.994 40.16 161.395 39.908C161.797 39.6467 162.095 39.2733 162.291 38.788V37.584H159.981C158.721 37.584 158.091 38.0227 158.091 38.9C158.091 39.3293 158.255 39.67 158.581 39.922C158.908 40.1647 159.365 40.286 159.953 40.286ZM172.26 33.58C172.95 33.58 173.571 33.7387 174.122 34.056C174.682 34.3733 175.12 34.8167 175.438 35.386C175.755 35.9553 175.914 36.5993 175.914 37.318C175.914 38.0367 175.755 38.6807 175.438 39.25C175.12 39.8193 174.682 40.2673 174.122 40.594C173.571 40.9113 172.95 41.07 172.26 41.07C171.606 41.07 171.014 40.93 170.482 40.65C169.95 40.3607 169.516 39.964 169.18 39.46C168.853 38.956 168.662 38.3773 168.606 37.724H166.926V41H165.932V33.636H166.926V36.814H168.62C168.694 36.1793 168.895 35.6193 169.222 35.134C169.558 34.6393 169.987 34.2567 170.51 33.986C171.032 33.7153 171.616 33.58 172.26 33.58ZM172.26 40.202C172.764 40.202 173.216 40.0807 173.618 39.838C174.028 39.5953 174.35 39.2547 174.584 38.816C174.817 38.3773 174.934 37.878 174.934 37.318C174.934 36.758 174.817 36.2587 174.584 35.82C174.35 35.3813 174.028 35.0453 173.618 34.812C173.216 34.5693 172.764 34.448 172.26 34.448C171.756 34.448 171.298 34.5693 170.888 34.812C170.486 35.0453 170.169 35.3813 169.936 35.82C169.702 36.2587 169.586 36.758 169.586 37.318C169.586 37.878 169.702 38.3773 169.936 38.816C170.169 39.2547 170.486 39.5953 170.888 39.838C171.298 40.0807 171.756 40.202 172.26 40.202ZM188.209 33.636V41H178.045V33.636H179.039V40.132H182.651V33.636H183.645V40.132H187.215V33.636H188.209ZM189.343 40.132V42.61H188.405V41H187.159V40.132H189.343ZM191.047 33.636H192.041V39.488L196.955 33.636H197.837V41H196.843V35.148L191.943 41H191.047V33.636ZM207.125 37.626H200.965C201.021 38.3913 201.315 39.012 201.847 39.488C202.379 39.9547 203.051 40.188 203.863 40.188C204.321 40.188 204.741 40.1087 205.123 39.95C205.506 39.782 205.837 39.5393 206.117 39.222L206.677 39.866C206.351 40.258 205.94 40.5567 205.445 40.762C204.96 40.9673 204.423 41.07 203.835 41.07C203.079 41.07 202.407 40.9113 201.819 40.594C201.241 40.2673 200.788 39.8193 200.461 39.25C200.135 38.6807 199.971 38.0367 199.971 37.318C199.971 36.5993 200.125 35.9553 200.433 35.386C200.751 34.8167 201.18 34.3733 201.721 34.056C202.272 33.7387 202.888 33.58 203.569 33.58C204.251 33.58 204.862 33.7387 205.403 34.056C205.945 34.3733 206.369 34.8167 206.677 35.386C206.985 35.946 207.139 36.59 207.139 37.318L207.125 37.626ZM203.569 34.434C202.86 34.434 202.263 34.6627 201.777 35.12C201.301 35.568 201.031 36.156 200.965 36.884H206.187C206.122 36.156 205.847 35.568 205.361 35.12C204.885 34.6627 204.288 34.434 203.569 34.434ZM216.084 41.07C215.356 41.07 214.703 40.9113 214.124 40.594C213.555 40.2767 213.107 39.8333 212.78 39.264C212.453 38.6853 212.29 38.0367 212.29 37.318C212.29 36.5993 212.453 35.9553 212.78 35.386C213.107 34.8167 213.555 34.3733 214.124 34.056C214.703 33.7387 215.356 33.58 216.084 33.58C216.719 33.58 217.283 33.706 217.778 33.958C218.282 34.2007 218.679 34.56 218.968 35.036L218.226 35.54C217.983 35.176 217.675 34.9053 217.302 34.728C216.929 34.5413 216.523 34.448 216.084 34.448C215.552 34.448 215.071 34.5693 214.642 34.812C214.222 35.0453 213.891 35.3813 213.648 35.82C213.415 36.2587 213.298 36.758 213.298 37.318C213.298 37.8873 213.415 38.3913 213.648 38.83C213.891 39.2593 214.222 39.5953 214.642 39.838C215.071 40.0713 215.552 40.188 216.084 40.188C216.523 40.188 216.929 40.0993 217.302 39.922C217.675 39.7447 217.983 39.474 218.226 39.11L218.968 39.614C218.679 40.09 218.282 40.454 217.778 40.706C217.274 40.9487 216.709 41.07 216.084 41.07ZM225.936 34.518H223.15V41H222.156V34.518H219.37V33.636H225.936V34.518ZM233.471 37.626H227.311C227.367 38.3913 227.661 39.012 228.193 39.488C228.725 39.9547 229.397 40.188 230.209 40.188C230.667 40.188 231.087 40.1087 231.469 39.95C231.852 39.782 232.183 39.5393 232.463 39.222L233.023 39.866C232.697 40.258 232.286 40.5567 231.791 40.762C231.306 40.9673 230.769 41.07 230.181 41.07C229.425 41.07 228.753 40.9113 228.165 40.594C227.587 40.2673 227.134 39.8193 226.807 39.25C226.481 38.6807 226.317 38.0367 226.317 37.318C226.317 36.5993 226.471 35.9553 226.779 35.386C227.097 34.8167 227.526 34.3733 228.067 34.056C228.618 33.7387 229.234 33.58 229.915 33.58C230.597 33.58 231.208 33.7387 231.749 34.056C232.291 34.3733 232.715 34.8167 233.023 35.386C233.331 35.946 233.485 36.59 233.485 37.318L233.471 37.626ZM229.915 34.434C229.206 34.434 228.609 34.6627 228.123 35.12C227.647 35.568 227.377 36.156 227.311 36.884H232.533C232.468 36.156 232.193 35.568 231.707 35.12C231.231 34.6627 230.634 34.434 229.915 34.434ZM235.685 33.636H236.679V36.898H241.313V33.636H242.307V41H241.313V37.752H236.679V41H235.685V33.636ZM248.227 36.24C249.151 36.2493 249.855 36.4547 250.341 36.856C250.826 37.2573 251.069 37.836 251.069 38.592C251.069 39.376 250.807 39.978 250.285 40.398C249.762 40.818 249.015 41.0233 248.045 41.014L245.133 41V33.636H246.127V36.212L248.227 36.24ZM252.301 33.636H253.295V41H252.301V33.636ZM247.989 40.258C248.67 40.2673 249.183 40.132 249.529 39.852C249.883 39.5627 250.061 39.1427 250.061 38.592C250.061 38.0507 249.888 37.6493 249.543 37.388C249.197 37.1267 248.679 36.9913 247.989 36.982L246.127 36.954V40.23L247.989 40.258Z" fill="#1F2041" fill-opacity="0.75"/>
<path d="M30.1875 33.0938C28.375 34.3438 26.3125 34.9688 24 34.9688C21.6875 34.9688 19.5938 34.3438 17.7188 33.0938C15.9062 31.7812 14.5938 30.0938 13.7812 28.0312H34.2188C33.4062 30.0938 32.0625 31.7812 30.1875 33.0938ZM19.0312 21.1875C18.4688 21.75 17.7812 22.0312 16.9688 22.0312C16.1562 22.0312 15.4375 21.75 14.8125 21.1875C14.25 20.5625 13.9688 19.8438 13.9688 19.0312C13.9688 18.2188 14.25 17.5312 14.8125 16.9688C15.4375 16.3438 16.1562 16.0312 16.9688 16.0312C17.7812 16.0312 18.4688 16.3438 19.0312 16.9688C19.6562 17.5312 19.9688 18.2188 19.9688 19.0312C19.9688 19.8438 19.6562 20.5625 19.0312 21.1875ZM33.0938 21.1875C32.5312 21.75 31.8438 22.0312 31.0312 22.0312C30.2188 22.0312 29.5 21.75 28.875 21.1875C28.3125 20.5625 28.0312 19.8438 28.0312 19.0312C28.0312 18.2188 28.3125 17.5312 28.875 16.9688C29.5 16.3438 30.2188 16.0312 31.0312 16.0312C31.8438 16.0312 32.5312 16.3438 33.0938 16.9688C33.7188 17.5312 34.0312 18.2188 34.0312 19.0312C34.0312 19.8438 33.7188 20.5625 33.0938 21.1875ZM12.6562 35.3438C15.8438 38.4688 19.625 40.0312 24 40.0312C28.375 40.0312 32.125 38.4688 35.25 35.3438C38.4375 32.1562 40.0312 28.375 40.0312 24C40.0312 19.625 38.4375 15.875 35.25 12.75C32.125 9.5625 28.375 7.96875 24 7.96875C19.625 7.96875 15.8438 9.5625 12.6562 12.75C9.53125 15.875 7.96875 19.625 7.96875 24C7.96875 28.375 9.53125 32.1562 12.6562 35.3438ZM9.84375 9.9375C13.7812 6 18.5 4.03125 24 4.03125C29.5 4.03125 34.1875 6 38.0625 9.9375C42 13.8125 43.9688 18.5 43.9688 24C43.9688 29.5 42 34.2188 38.0625 38.1562C34.1875 42.0312 29.5 43.9688 24 43.9688C18.5 43.9688 13.7812 42.0312 9.84375 38.1562C5.96875 34.2188 4.03125 29.5 4.03125 24C4.03125 18.5 5.96875 13.8125 9.84375 9.9375Z" fill="url(#paint0_linear)"/>
<path d="M68.066 96.2L63.894 103.956C63.4927 104.703 63.0073 105.267 62.438 105.65C61.878 106.033 61.2667 106.224 60.604 106.224C60.0907 106.224 59.5587 106.112 59.008 105.888L59.554 104.166C59.946 104.287 60.2727 104.348 60.534 104.348C60.814 104.348 61.066 104.283 61.29 104.152C61.514 104.012 61.7193 103.797 61.906 103.508L61.99 103.396L58.126 96.2H60.548L63.152 101.464L65.84 96.2H68.066ZM77.0213 104.208V107.624H74.9913V106H69.6993V107.624H67.6693V104.208H67.9773C68.444 104.199 68.766 103.923 68.9433 103.382C69.1206 102.841 69.2326 102.071 69.2793 101.072L69.3773 98.468H75.9433V104.208H77.0213ZM71.2533 101.226C71.2253 101.991 71.1646 102.617 71.0713 103.102C70.9873 103.587 70.824 103.956 70.5813 104.208H73.7593V100.26H71.2953L71.2533 101.226ZM81.9237 106.112C81.1304 106.112 80.4164 105.949 79.7817 105.622C79.1564 105.286 78.6664 104.824 78.3117 104.236C77.957 103.648 77.7797 102.981 77.7797 102.234C77.7797 101.487 77.957 100.82 78.3117 100.232C78.6664 99.644 79.1564 99.1867 79.7817 98.86C80.4164 98.524 81.1304 98.356 81.9237 98.356C82.717 98.356 83.4264 98.524 84.0517 98.86C84.677 99.1867 85.167 99.644 85.5217 100.232C85.8764 100.82 86.0537 101.487 86.0537 102.234C86.0537 102.981 85.8764 103.648 85.5217 104.236C85.167 104.824 84.677 105.286 84.0517 105.622C83.4264 105.949 82.717 106.112 81.9237 106.112ZM81.9237 104.32C82.4837 104.32 82.941 104.133 83.2957 103.76C83.6597 103.377 83.8417 102.869 83.8417 102.234C83.8417 101.599 83.6597 101.095 83.2957 100.722C82.941 100.339 82.4837 100.148 81.9237 100.148C81.3637 100.148 80.9017 100.339 80.5377 100.722C80.1737 101.095 79.9917 101.599 79.9917 102.234C79.9917 102.869 80.1737 103.377 80.5377 103.76C80.9017 104.133 81.3637 104.32 81.9237 104.32ZM91.9099 98.986C92.6285 98.986 93.2585 99.1353 93.7999 99.434C94.3412 99.7233 94.7565 100.134 95.0459 100.666C95.3445 101.198 95.4939 101.814 95.4939 102.514C95.4939 103.233 95.3165 103.872 94.9619 104.432C94.6165 104.983 94.1312 105.412 93.5059 105.72C92.8805 106.019 92.1712 106.168 91.3779 106.168C90.0619 106.168 89.0259 105.748 88.2699 104.908C87.5232 104.059 87.1499 102.817 87.1499 101.184C87.1499 99.672 87.4765 98.468 88.1299 97.572C88.7925 96.6667 89.8052 96.074 91.1679 95.794L94.7519 95.08L95.0459 96.956L91.8819 97.586C91.0232 97.754 90.3839 98.034 89.9639 98.426C89.5532 98.818 89.3105 99.3733 89.2359 100.092C89.5625 99.7373 89.9545 99.4667 90.4119 99.28C90.8692 99.084 91.3685 98.986 91.9099 98.986ZM91.3919 104.474C91.9519 104.474 92.3999 104.292 92.7359 103.928C93.0812 103.564 93.2539 103.102 93.2539 102.542C93.2539 101.973 93.0812 101.52 92.7359 101.184C92.3999 100.848 91.9519 100.68 91.3919 100.68C90.8225 100.68 90.3652 100.848 90.0199 101.184C89.6745 101.52 89.5019 101.973 89.5019 102.542C89.5019 103.111 89.6792 103.578 90.0339 103.942C90.3885 104.297 90.8412 104.474 91.3919 104.474ZM100.56 106.112C99.7571 106.112 99.0338 105.949 98.3898 105.622C97.7551 105.286 97.2558 104.824 96.8918 104.236C96.5371 103.648 96.3598 102.981 96.3598 102.234C96.3598 101.487 96.5371 100.82 96.8918 100.232C97.2558 99.644 97.7551 99.1867 98.3898 98.86C99.0338 98.524 99.7571 98.356 100.56 98.356C101.353 98.356 102.044 98.524 102.632 98.86C103.229 99.1867 103.663 99.658 103.934 100.274L102.24 101.184C101.848 100.493 101.283 100.148 100.546 100.148C99.9764 100.148 99.5051 100.335 99.1318 100.708C98.7584 101.081 98.5718 101.59 98.5718 102.234C98.5718 102.878 98.7584 103.387 99.1318 103.76C99.5051 104.133 99.9764 104.32 100.546 104.32C101.292 104.32 101.857 103.975 102.24 103.284L103.934 104.208C103.663 104.805 103.229 105.272 102.632 105.608C102.044 105.944 101.353 106.112 100.56 106.112ZM111.562 100.26H109.014V106H106.844V100.26H104.296V98.468H111.562V100.26ZM118.48 102.066C119.366 102.365 119.81 102.962 119.81 103.858C119.81 104.539 119.553 105.067 119.04 105.44C118.526 105.813 117.761 106 116.744 106H112.726V98.468H116.576C117.518 98.468 118.256 98.6407 118.788 98.986C119.32 99.322 119.586 99.798 119.586 100.414C119.586 100.787 119.488 101.119 119.292 101.408C119.105 101.688 118.834 101.907 118.48 102.066ZM114.728 101.562H116.38C117.145 101.562 117.528 101.291 117.528 100.75C117.528 100.218 117.145 99.952 116.38 99.952H114.728V101.562ZM116.562 104.516C117.364 104.516 117.766 104.241 117.766 103.69C117.766 103.401 117.672 103.191 117.486 103.06C117.299 102.92 117.005 102.85 116.604 102.85H114.728V104.516H116.562ZM124.963 106.112C124.169 106.112 123.455 105.949 122.821 105.622C122.195 105.286 121.705 104.824 121.351 104.236C120.996 103.648 120.819 102.981 120.819 102.234C120.819 101.487 120.996 100.82 121.351 100.232C121.705 99.644 122.195 99.1867 122.821 98.86C123.455 98.524 124.169 98.356 124.963 98.356C125.756 98.356 126.465 98.524 127.091 98.86C127.716 99.1867 128.206 99.644 128.561 100.232C128.915 100.82 129.093 101.487 129.093 102.234C129.093 102.981 128.915 103.648 128.561 104.236C128.206 104.824 127.716 105.286 127.091 105.622C126.465 105.949 125.756 106.112 124.963 106.112ZM124.963 104.32C125.523 104.32 125.98 104.133 126.335 103.76C126.699 103.377 126.881 102.869 126.881 102.234C126.881 101.599 126.699 101.095 126.335 100.722C125.98 100.339 125.523 100.148 124.963 100.148C124.403 100.148 123.941 100.339 123.577 100.722C123.213 101.095 123.031 101.599 123.031 102.234C123.031 102.869 123.213 103.377 123.577 103.76C123.941 104.133 124.403 104.32 124.963 104.32ZM63.95 130.084C62.9793 130.084 62.0973 129.869 61.304 129.44C60.52 129.001 59.904 128.404 59.456 127.648C59.0173 126.892 58.798 126.043 58.798 125.1C58.798 124.157 59.0173 123.308 59.456 122.552C59.904 121.796 60.52 121.203 61.304 120.774C62.0973 120.335 62.9793 120.116 63.95 120.116C64.9207 120.116 65.7933 120.331 66.568 120.76C67.352 121.189 67.968 121.787 68.416 122.552C68.864 123.308 69.088 124.157 69.088 125.1C69.088 126.043 68.864 126.897 68.416 127.662C67.968 128.418 67.352 129.011 66.568 129.44C65.7933 129.869 64.9207 130.084 63.95 130.084ZM63.95 129.16C64.7247 129.16 65.4247 128.987 66.05 128.642C66.6753 128.287 67.1653 127.802 67.52 127.186C67.8747 126.561 68.052 125.865 68.052 125.1C68.052 124.335 67.8747 123.644 67.52 123.028C67.1653 122.403 66.6753 121.917 66.05 121.572C65.4247 121.217 64.7247 121.04 63.95 121.04C63.1753 121.04 62.4707 121.217 61.836 121.572C61.2107 121.917 60.716 122.403 60.352 123.028C59.9973 123.644 59.82 124.335 59.82 125.1C59.82 125.865 59.9973 126.561 60.352 127.186C60.716 127.802 61.2107 128.287 61.836 128.642C62.4707 128.987 63.1753 129.16 63.95 129.16ZM73.9962 126.724H72.3162V130H71.3222V122.636H72.3162V125.87H74.0102L76.6002 122.636H77.6782L74.7802 126.206L77.8882 130H76.7122L73.9962 126.724ZM79.457 122.636H80.451V125.898H85.085V122.636H86.079V130H85.085V126.752H80.451V130H79.457V122.636ZM91.9422 130.07C91.2329 130.07 90.5936 129.911 90.0242 129.594C89.4549 129.267 89.0069 128.819 88.6802 128.25C88.3536 127.681 88.1902 127.037 88.1902 126.318C88.1902 125.599 88.3536 124.955 88.6802 124.386C89.0069 123.817 89.4549 123.373 90.0242 123.056C90.5936 122.739 91.2329 122.58 91.9422 122.58C92.6516 122.58 93.2909 122.739 93.8602 123.056C94.4296 123.373 94.8729 123.817 95.1902 124.386C95.5169 124.955 95.6802 125.599 95.6802 126.318C95.6802 127.037 95.5169 127.681 95.1902 128.25C94.8729 128.819 94.4296 129.267 93.8602 129.594C93.2909 129.911 92.6516 130.07 91.9422 130.07ZM91.9422 129.188C92.4649 129.188 92.9316 129.071 93.3422 128.838C93.7622 128.595 94.0889 128.255 94.3222 127.816C94.5556 127.377 94.6722 126.878 94.6722 126.318C94.6722 125.758 94.5556 125.259 94.3222 124.82C94.0889 124.381 93.7622 124.045 93.3422 123.812C92.9316 123.569 92.4649 123.448 91.9422 123.448C91.4196 123.448 90.9482 123.569 90.5282 123.812C90.1176 124.045 89.7909 124.381 89.5482 124.82C89.3149 125.259 89.1982 125.758 89.1982 126.318C89.1982 126.878 89.3149 127.377 89.5482 127.816C89.7909 128.255 90.1176 128.595 90.5282 128.838C90.9482 129.071 91.4196 129.188 91.9422 129.188ZM106.159 126.192C107.157 126.425 107.657 127.027 107.657 127.998C107.657 128.642 107.419 129.137 106.943 129.482C106.467 129.827 105.757 130 104.815 130H101.469V122.636H104.717C105.557 122.636 106.215 122.799 106.691 123.126C107.167 123.453 107.405 123.919 107.405 124.526C107.405 124.927 107.293 125.273 107.069 125.562C106.854 125.842 106.551 126.052 106.159 126.192ZM102.435 125.912H104.647C105.216 125.912 105.65 125.805 105.949 125.59C106.257 125.375 106.411 125.063 106.411 124.652C106.411 124.241 106.257 123.933 105.949 123.728C105.65 123.523 105.216 123.42 104.647 123.42H102.435V125.912ZM104.773 129.216C105.407 129.216 105.883 129.113 106.201 128.908C106.518 128.703 106.677 128.381 106.677 127.942C106.677 127.503 106.532 127.181 106.243 126.976C105.953 126.761 105.496 126.654 104.871 126.654H102.435V129.216H104.773ZM116.324 126.724H114.644V130H113.65V122.636H114.644V125.87H116.338L118.928 122.636H120.006L117.108 126.206L120.216 130H119.04L116.324 126.724ZM124.182 122.58C125.144 122.58 125.881 122.823 126.394 123.308C126.908 123.784 127.164 124.493 127.164 125.436V130H126.212V128.852C125.988 129.235 125.657 129.533 125.218 129.748C124.789 129.963 124.276 130.07 123.678 130.07C122.857 130.07 122.204 129.874 121.718 129.482C121.233 129.09 120.99 128.572 120.99 127.928C120.99 127.303 121.214 126.799 121.662 126.416C122.12 126.033 122.843 125.842 123.832 125.842H126.17V125.394C126.17 124.759 125.993 124.279 125.638 123.952C125.284 123.616 124.766 123.448 124.084 123.448C123.618 123.448 123.17 123.527 122.74 123.686C122.311 123.835 121.942 124.045 121.634 124.316L121.186 123.574C121.56 123.257 122.008 123.014 122.53 122.846C123.053 122.669 123.604 122.58 124.182 122.58ZM123.832 129.286C124.392 129.286 124.873 129.16 125.274 128.908C125.676 128.647 125.974 128.273 126.17 127.788V126.584H123.86C122.6 126.584 121.97 127.023 121.97 127.9C121.97 128.329 122.134 128.67 122.46 128.922C122.787 129.165 123.244 129.286 123.832 129.286ZM136.264 126.724H134.668V130H133.674V126.724H132.078L129.824 130H128.634L131.28 126.206L128.844 122.636H129.922L132.078 125.87H133.674V122.636H134.668V125.87H136.264L138.434 122.636H139.512L137.076 126.22L139.722 130H138.532L136.264 126.724ZM148.559 129.132V131.778H147.621V130H141.027V131.778H140.089V129.132H140.509C141.004 129.104 141.34 128.74 141.517 128.04C141.694 127.34 141.816 126.36 141.881 125.1L141.979 122.636H147.411V129.132H148.559ZM142.791 125.156C142.744 126.201 142.656 127.065 142.525 127.746C142.394 128.418 142.161 128.88 141.825 129.132H146.417V123.518H142.875L142.791 125.156ZM153.534 130.07C152.825 130.07 152.185 129.911 151.616 129.594C151.047 129.267 150.599 128.819 150.272 128.25C149.945 127.681 149.782 127.037 149.782 126.318C149.782 125.599 149.945 124.955 150.272 124.386C150.599 123.817 151.047 123.373 151.616 123.056C152.185 122.739 152.825 122.58 153.534 122.58C154.243 122.58 154.883 122.739 155.452 123.056C156.021 123.373 156.465 123.817 156.782 124.386C157.109 124.955 157.272 125.599 157.272 126.318C157.272 127.037 157.109 127.681 156.782 128.25C156.465 128.819 156.021 129.267 155.452 129.594C154.883 129.911 154.243 130.07 153.534 130.07ZM153.534 129.188C154.057 129.188 154.523 129.071 154.934 128.838C155.354 128.595 155.681 128.255 155.914 127.816C156.147 127.377 156.264 126.878 156.264 126.318C156.264 125.758 156.147 125.259 155.914 124.82C155.681 124.381 155.354 124.045 154.934 123.812C154.523 123.569 154.057 123.448 153.534 123.448C153.011 123.448 152.54 123.569 152.12 123.812C151.709 124.045 151.383 124.381 151.14 124.82C150.907 125.259 150.79 125.758 150.79 126.318C150.79 126.878 150.907 127.377 151.14 127.816C151.383 128.255 151.709 128.595 152.12 128.838C152.54 129.071 153.011 129.188 153.534 129.188ZM159.396 122.636H160.39V128.488L165.304 122.636H166.186V130H165.192V124.148L160.292 130H159.396V122.636ZM162.742 121.572C162.108 121.572 161.604 121.413 161.23 121.096C160.857 120.779 160.666 120.331 160.656 119.752H161.37C161.38 120.116 161.51 120.41 161.762 120.634C162.014 120.849 162.341 120.956 162.742 120.956C163.144 120.956 163.47 120.849 163.722 120.634C163.984 120.41 164.119 120.116 164.128 119.752H164.842C164.833 120.331 164.637 120.779 164.254 121.096C163.881 121.413 163.377 121.572 162.742 121.572ZM172.699 122.636H173.693V128.488L178.607 122.636H179.489V130H178.495V124.148L173.595 130H172.699V122.636ZM185.771 126.164C186.294 126.285 186.695 126.495 186.975 126.794C187.265 127.093 187.409 127.457 187.409 127.886C187.409 128.315 187.26 128.698 186.961 129.034C186.672 129.37 186.275 129.631 185.771 129.818C185.267 129.995 184.712 130.084 184.105 130.084C183.573 130.084 183.051 130.009 182.537 129.86C182.024 129.701 181.576 129.473 181.193 129.174L181.529 128.432C181.865 128.684 182.257 128.88 182.705 129.02C183.153 129.16 183.606 129.23 184.063 129.23C184.745 129.23 185.3 129.104 185.729 128.852C186.168 128.591 186.387 128.241 186.387 127.802C186.387 127.41 186.21 127.107 185.855 126.892C185.501 126.668 185.015 126.556 184.399 126.556H183.139V125.828H184.343C184.894 125.828 185.337 125.725 185.673 125.52C186.009 125.305 186.177 125.021 186.177 124.666C186.177 124.274 185.986 123.966 185.603 123.742C185.23 123.518 184.74 123.406 184.133 123.406C183.34 123.406 182.556 123.607 181.781 124.008L181.501 123.238C182.379 122.781 183.289 122.552 184.231 122.552C184.791 122.552 185.295 122.636 185.743 122.804C186.201 122.963 186.555 123.191 186.807 123.49C187.069 123.789 187.199 124.134 187.199 124.526C187.199 124.899 187.069 125.231 186.807 125.52C186.555 125.809 186.21 126.024 185.771 126.164ZM196.41 130.07C195.682 130.07 195.029 129.911 194.45 129.594C193.881 129.277 193.433 128.833 193.106 128.264C192.779 127.685 192.616 127.037 192.616 126.318C192.616 125.599 192.779 124.955 193.106 124.386C193.433 123.817 193.881 123.373 194.45 123.056C195.029 122.739 195.682 122.58 196.41 122.58C197.045 122.58 197.609 122.706 198.104 122.958C198.608 123.201 199.005 123.56 199.294 124.036L198.552 124.54C198.309 124.176 198.001 123.905 197.628 123.728C197.255 123.541 196.849 123.448 196.41 123.448C195.878 123.448 195.397 123.569 194.968 123.812C194.548 124.045 194.217 124.381 193.974 124.82C193.741 125.259 193.624 125.758 193.624 126.318C193.624 126.887 193.741 127.391 193.974 127.83C194.217 128.259 194.548 128.595 194.968 128.838C195.397 129.071 195.878 129.188 196.41 129.188C196.849 129.188 197.255 129.099 197.628 128.922C198.001 128.745 198.309 128.474 198.552 128.11L199.294 128.614C199.005 129.09 198.608 129.454 198.104 129.706C197.6 129.949 197.035 130.07 196.41 130.07ZM207.827 122.636V130H206.833V123.518H202.213V130H201.219V122.636H207.827ZM213.186 122.58C214.148 122.58 214.885 122.823 215.398 123.308C215.912 123.784 216.168 124.493 216.168 125.436V130H215.216V128.852C214.992 129.235 214.661 129.533 214.222 129.748C213.793 129.963 213.28 130.07 212.682 130.07C211.861 130.07 211.208 129.874 210.722 129.482C210.237 129.09 209.994 128.572 209.994 127.928C209.994 127.303 210.218 126.799 210.666 126.416C211.124 126.033 211.847 125.842 212.836 125.842H215.174V125.394C215.174 124.759 214.997 124.279 214.642 123.952C214.288 123.616 213.77 123.448 213.088 123.448C212.622 123.448 212.174 123.527 211.744 123.686C211.315 123.835 210.946 124.045 210.638 124.316L210.19 123.574C210.564 123.257 211.012 123.014 211.534 122.846C212.057 122.669 212.608 122.58 213.186 122.58ZM212.836 129.286C213.396 129.286 213.877 129.16 214.278 128.908C214.68 128.647 214.978 128.273 215.174 127.788V126.584H212.864C211.604 126.584 210.974 127.023 210.974 127.9C210.974 128.329 211.138 128.67 211.464 128.922C211.791 129.165 212.248 129.286 212.836 129.286ZM224.834 122.636V130H223.84V123.518H220.312L220.214 125.338C220.14 126.869 219.962 128.045 219.682 128.866C219.402 129.687 218.903 130.098 218.184 130.098C217.988 130.098 217.75 130.061 217.47 129.986L217.54 129.132C217.708 129.169 217.825 129.188 217.89 129.188C218.273 129.188 218.562 129.011 218.758 128.656C218.954 128.301 219.085 127.863 219.15 127.34C219.216 126.817 219.272 126.127 219.318 125.268L219.444 122.636H224.834ZM234.1 126.626H227.94C227.996 127.391 228.29 128.012 228.822 128.488C229.354 128.955 230.026 129.188 230.838 129.188C231.295 129.188 231.715 129.109 232.098 128.95C232.481 128.782 232.812 128.539 233.092 128.222L233.652 128.866C233.325 129.258 232.915 129.557 232.42 129.762C231.935 129.967 231.398 130.07 230.81 130.07C230.054 130.07 229.382 129.911 228.794 129.594C228.215 129.267 227.763 128.819 227.436 128.25C227.109 127.681 226.946 127.037 226.946 126.318C226.946 125.599 227.1 124.955 227.408 124.386C227.725 123.817 228.155 123.373 228.696 123.056C229.247 122.739 229.863 122.58 230.544 122.58C231.225 122.58 231.837 122.739 232.378 123.056C232.919 123.373 233.344 123.817 233.652 124.386C233.96 124.946 234.114 125.59 234.114 126.318L234.1 126.626ZM230.544 123.434C229.835 123.434 229.237 123.663 228.752 124.12C228.276 124.568 228.005 125.156 227.94 125.884H233.162C233.097 125.156 232.821 124.568 232.336 124.12C231.86 123.663 231.263 123.434 230.544 123.434ZM236.314 122.636H237.308V125.898H241.942V122.636H242.936V130H241.942V126.752H237.308V130H236.314V122.636Z" fill="#1F2041" fill-opacity="0.75"/>
<path d="M37.9688 119V114.969H34.0312V119H37.9688ZM37.9688 126.969V123.031H34.0312V126.969H37.9688ZM25.9688 102.969V99.0312H22.0312V102.969H25.9688ZM25.9688 111.031V107H22.0312V111.031H25.9688ZM25.9688 119V114.969H22.0312V119H25.9688ZM25.9688 126.969V123.031H22.0312V126.969H25.9688ZM13.9688 111.031V107H10.0312V111.031H13.9688ZM13.9688 119V114.969H10.0312V119H13.9688ZM13.9688 126.969V123.031H10.0312V126.969H13.9688ZM30 111.031H42V131H6V102.969H18V99.0312L24 93.0312L30 99.0312V111.031Z" fill="url(#paint1_linear)"/>
<rect y="157" width="280" height="1" fill="#1F2041" fill-opacity="0.1"/>
<defs>
<linearGradient id="paint0_linear" x1="24" y1="0" x2="24" y2="48" gradientUnits="userSpaceOnUse">
<stop stop-color="#BC9CFF"/>
<stop offset="1" stop-color="#8BA4F9"/>
</linearGradient>
<linearGradient id="paint1_linear" x1="24" y1="89" x2="24" y2="137" gradientUnits="userSpaceOnUse">
<stop stop-color="#BC9CFF"/>
<stop offset="1" stop-color="#8BA4F9"/>
</linearGradient>
</defs>
</svg>
